<?xml version="1.0" encoding="utf-8"?>
<!-- Generator: Adobe Illustrator 16.0.0, SVG Export Plug-In . SVG Version: 6.00 Build 0)  -->
<!DOCTYPE svg PUBLIC "-//W3C//DTD SVG 1.1//EN" "http://www.w3.org/Graphics/SVG/1.1/DTD/svg11.dtd">
<svg version="1.1" id="Capa_1" xmlns="http://www.w3.org/2000/svg" xmlns:xlink="http://www.w3.org/1999/xlink" x="0px" y="0px"
	 width="46px" height="46px" viewBox="477 977 46 46" enable-background="new 477 977 46 46" xml:space="preserve">
<g>
	<g>
		<g>
			<polygon fill="#28B372" points="494.256,1003.625 489.943,1007.944 486.5,1004.496 486.5,1013.5 495.498,1013.5 
				492.057,1010.059 496.378,1005.743 			"/>
			<polygon fill="#28B372" points="495.498,986.5 486.5,986.5 486.5,995.498 489.943,992.057 494.256,996.378 496.378,994.256 
				492.057,989.943 			"/>
			<polygon fill="#28B372" points="504.496,986.5 507.944,989.943 503.625,994.256 505.743,996.378 510.059,992.057 513.5,995.498 
				513.5,986.5 			"/>
			<polygon fill="#28B372" points="505.743,1003.625 503.625,1005.743 507.944,1010.059 504.496,1013.5 513.5,1013.5 
				513.5,1004.496 510.059,1007.944 			"/>
		</g>
	</g>
</g>
<g>
	<path fill="#28B372" d="M500,978c12.131,0,22,9.869,22,22s-9.869,22-22,22s-22-9.869-22-22S487.869,978,500,978 M500,977
		c-12.703,0-23,10.297-23,23c0,12.703,10.297,23,23,23s23-10.297,23-23C523,987.297,512.703,977,500,977L500,977z"/>
</g>
</svg>
