<?xml version="1.0" encoding="utf-8"?>
<!-- Generator: Adobe Illustrator 16.0.0, SVG Export Plug-In . SVG Version: 6.00 Build 0)  -->
<!DOCTYPE svg PUBLIC "-//W3C//DTD SVG 1.1//EN" "http://www.w3.org/Graphics/SVG/1.1/DTD/svg11.dtd">
<svg version="1.1" id="Capa_1" xmlns="http://www.w3.org/2000/svg" xmlns:xlink="http://www.w3.org/1999/xlink" x="0px" y="0px"
	 width="46px" height="46px" viewBox="0 0 46 46" enable-background="new 0 0 46 46" xml:space="preserve">
<g>
	<g>
		<g>
			<polygon fill="#82C55B" points="17.256,26.625 12.943,30.944 9.5,27.496 9.5,36.5 18.498,36.5 15.057,33.059 19.378,28.743 			
				"/>
			<polygon fill="#82C55B" points="18.498,9.5 9.5,9.5 9.5,18.498 12.943,15.057 17.256,19.378 19.378,17.256 15.057,12.943 			"/>
			<polygon fill="#82C55B" points="27.496,9.5 30.944,12.943 26.625,17.256 28.743,19.378 33.059,15.057 36.5,18.498 36.5,9.5 			
				"/>
			<polygon fill="#82C55B" points="28.743,26.625 26.625,28.743 30.944,33.059 27.496,36.5 36.5,36.5 36.5,27.496 33.059,30.944 			
				"/>
		</g>
	</g>
</g>
<g>
	<path fill="#82C55B" d="M23,1c12.131,0,22,9.869,22,22s-9.869,22-22,22S1,35.131,1,23S10.869,1,23,1 M23,0C10.297,0,0,10.297,0,23
		s10.297,23,23,23s23-10.297,23-23S35.703,0,23,0L23,0z"/>
</g>
</svg>
