<?xml version="1.0" encoding="utf-8"?>
<!-- Generator: Adobe Illustrator 16.0.0, SVG Export Plug-In . SVG Version: 6.00 Build 0)  -->
<!DOCTYPE svg PUBLIC "-//W3C//DTD SVG 1.1//EN" "http://www.w3.org/Graphics/SVG/1.1/DTD/svg11.dtd">
<svg version="1.1" id="Layer_1" xmlns="http://www.w3.org/2000/svg" xmlns:xlink="http://www.w3.org/1999/xlink" x="0px" y="0px"
	 width="850px" height="780px" viewBox="0 0 850 780" enable-background="new 0 0 850 780" xml:space="preserve">
<g>
	<line fill="none" stroke="#82C55B" stroke-width="4" stroke-miterlimit="10" x1="539.5" y1="203" x2="616.5" y2="203"/>
	<line fill="none" stroke="#82C55B" stroke-width="4" stroke-miterlimit="10" x1="127.5" y1="355" x2="127.5" y2="521"/>
	<line fill="none" stroke="#82C55B" stroke-width="4" stroke-miterlimit="10" x1="257.5" y1="328" x2="323.5" y2="328"/>
	<line fill="none" stroke="#82C55B" stroke-width="4" stroke-miterlimit="10" x1="257.5" y1="439" x2="323.5" y2="439"/>
	<line fill="none" stroke="#82C55B" stroke-width="4" stroke-miterlimit="10" x1="375.5" y1="439" x2="516.5" y2="439"/>
	<line fill="none" stroke="#82C55B" stroke-width="4" stroke-miterlimit="10" x1="150.5" y1="544" x2="257.5" y2="544"/>
	<rect x="7.5" y="293" fill="#FFFFFF" stroke="#9BD07C" stroke-width="2" stroke-miterlimit="10" width="251" height="62"/>
	<rect x="7.5" y="406" fill="#FFFFFF" stroke="#9BD07C" stroke-width="2" stroke-miterlimit="10" width="251" height="62"/>
	<text transform="matrix(1 0 0 1 22.3857 332.0664)" fill="#939598" font-family="'Montserrat-Medium'" font-size="16">CONSEJERÍA EN OPCIONES</text>
	<line fill="none" stroke="#82C55B" stroke-width="4" stroke-miterlimit="10" x1="346.5" y1="252" x2="346.5" y2="294"/>
	<line fill="none" stroke="#82C55B" stroke-width="4" stroke-miterlimit="10" x1="402.5" y1="151" x2="402.5" y2="193"/>
	<line fill="none" stroke="#82C55B" stroke-width="4" stroke-miterlimit="10" x1="402.5" y1="81" x2="402.5" y2="123"/>
	<line fill="none" stroke="#82C55B" stroke-width="4" stroke-miterlimit="10" x1="454.5" y1="252" x2="454.5" y2="294"/>
	<rect x="291.5" y="10" fill="#82C55B" width="227" height="44"/>
	<rect x="245.5" y="108" fill="#82C55B" width="315" height="44"/>
	<rect x="244.5" y="190" fill="#FFFFFF" stroke="#9BD07C" stroke-width="2" stroke-miterlimit="10" width="317" height="62"/>
	<rect x="516.5" y="293" fill="#FFFFFF" stroke="#9BD07C" stroke-width="2" stroke-miterlimit="10" width="326" height="62"/>
	<g>
		<text transform="matrix(1 0 0 1 311.6123 36.8506)" fill="#FFFFFF" font-family="'Montserrat-Bold'" font-size="16">Personas embarazadas</text>
	</g>
	<text transform="matrix(1 0 0 1 269.0615 135.4219)" fill="#FFFFFF" font-family="'Montserrat-Bold'" font-size="16">Recepción en el sistema de salud</text>
	<rect x="245.5" y="726" fill="#82C55B" width="315" height="44"/>
	<g>
		<text transform="matrix(1 0 0 1 278.0615 753.4219)" fill="#FFFFFF" font-family="'Montserrat-Bold'" font-size="16">Procedimiento de interrupción</text>
	</g>
	<text transform="matrix(1 0 0 1 544.7891 319.623)"><tspan x="0" y="0" fill="#939598" font-family="'Montserrat-Medium'" font-size="16">CONSEJERÍA/ASESORIA INTEGRAL</tspan><tspan x="-10.048" y="18" fill="#939598" font-family="'Montserrat-Medium'" font-size="16">EN SALUD SEXUAL Y REPRODUCTIVA</tspan></text>
	<g>
		<rect x="203.5" y="512" fill="#FFFFFF" stroke="#9BD07C" stroke-width="2" stroke-miterlimit="10" width="399" height="140"/>
		<g>
			<text transform="matrix(1 0 0 1 256 543.623)"><tspan x="0" y="0" fill="#939598" font-family="'Montserrat-Light'" font-size="16">Apertura de HC</tspan><tspan x="0" y="22" fill="#939598" font-family="'Montserrat-Light'" font-size="16">Consentimiento informado</tspan><tspan x="0" y="44" fill="#939598" font-family="'Montserrat-Light'" font-size="16">En causal violación: declaración jurada</tspan><tspan x="0" y="66" fill="#939598" font-family="'Montserrat-Light'" font-size="16">Evaluación médica</tspan><tspan x="0" y="88" fill="#939598" font-family="'Montserrat-Light'" font-size="16">Estudios complementarios</tspan></text>
			<text transform="matrix(1 0 0 1 239 552)"><tspan x="0" y="0" fill="#82C55B" font-family="'Montserrat-Light'" font-size="42">•</tspan><tspan x="0" y="21.5" fill="#82C55B" font-family="'Montserrat-Light'" font-size="42">•</tspan><tspan x="0" y="43" fill="#82C55B" font-family="'Montserrat-Light'" font-size="42">•</tspan><tspan x="0" y="64.5" fill="#82C55B" font-family="'Montserrat-Light'" font-size="42">•</tspan><tspan x="0" y="86" fill="#82C55B" font-family="'Montserrat-Light'" font-size="42">•</tspan></text>
		</g>
	</g>
	<text transform="matrix(1 0 0 1 41.3857 442.7441)" fill="#939598" font-family="'Montserrat-Medium'" font-size="16">¿ELIGE INTERRUMPIR?</text>
	<rect x="516.5" y="406" fill="#FFFFFF" stroke="#9BD07C" stroke-width="2" stroke-miterlimit="10" width="289" height="62"/>
	<g>
		<text transform="matrix(1 0 0 1 560.6016 442.7441)" fill="#939598" font-family="'Montserrat-Medium'" font-size="16">CONTROL DEL EMBARAZO</text>
	</g>
	<text transform="matrix(1 0 0 1 286.1504 217.2803)"><tspan x="0" y="0" fill="#939598" font-family="'Montserrat-Medium'" font-size="16">¿EXISTE CAUSAL PARA ILE?</tspan><tspan x="-14.809" y="18" fill="#939598" font-family="'Montserrat-Medium'" font-size="16">INFORMACIÓN / ORIENTACIÓN</tspan></text>
	<line fill="none" stroke="#82C55B" stroke-width="4" stroke-miterlimit="10" x1="490.5" y1="328" x2="516.5" y2="328"/>
	<g>
		<circle fill="#414042" cx="351.708" cy="322.624" r="30.899"/>
	</g>
	<text transform="matrix(1 0 0 1 340.1162 332.0664)" fill="#FFFFFF" font-family="'Montserrat-Bold'" font-size="24">SI</text>
	<g>
		<circle fill="#414042" cx="129.708" cy="541.624" r="30.899"/>
	</g>
	<text transform="matrix(1 0 0 1 118.1162 551.0664)" fill="#FFFFFF" font-family="'Montserrat-Bold'" font-size="24">SI</text>
	<g>
		<circle fill="#414042" cx="459.708" cy="322.624" r="30.899"/>
	</g>
	<text transform="matrix(1 0 0 1 439.9922 332.0664)" fill="#FFFFFF" font-family="'Montserrat-Bold'" font-size="24">NO</text>
	<g>
		<circle fill="#414042" cx="351.708" cy="436.624" r="30.899"/>
	</g>
	<text transform="matrix(1 0 0 1 331.9922 446.0664)" fill="#FFFFFF" font-family="'Montserrat-Bold'" font-size="24">NO</text>
	<g>
		<text transform="matrix(1 0 0 1 629.5 210.999)"><tspan x="0" y="0" fill="#939598" font-family="'Montserrat-Light'" font-size="16">Peligro para la vida</tspan><tspan x="0" y="22" fill="#939598" font-family="'Montserrat-Light'" font-size="16">Peligro para la salud</tspan><tspan x="0" y="44" fill="#939598" font-family="'Montserrat-Light'" font-size="16">Violación</tspan></text>
	</g>
	<polyline fill="none" stroke="#404042" stroke-width="4" stroke-miterlimit="10" points="203.5,27 203.5,80 602.5,80 602.5,21 	"/>
	<line fill="none" stroke="#82C55B" stroke-width="4" stroke-miterlimit="10" x1="402.5" y1="683" x2="402.5" y2="730"/>
	<polyline fill="none" stroke="#404042" stroke-width="4" stroke-miterlimit="10" points="176.5,629 176.5,682 630.5,682 630.5,623 
			"/>
	<polyline fill="none" stroke="#82C55B" stroke-width="4" stroke-miterlimit="10" points="584.5,204 584.5,251 616.5,251 	"/>
	<line fill="none" stroke="#82C55B" stroke-width="4" stroke-miterlimit="10" x1="584.5" y1="227" x2="614.5" y2="227"/>
</g>
</svg>
