<?xml version="1.0" encoding="utf-8"?>
<!-- Generator: Adobe Illustrator 16.0.0, SVG Export Plug-In . SVG Version: 6.00 Build 0)  -->
<!DOCTYPE svg PUBLIC "-//W3C//DTD SVG 1.1//EN" "http://www.w3.org/Graphics/SVG/1.1/DTD/svg11.dtd">
<svg version="1.1" id="Layer_1" xmlns="http://www.w3.org/2000/svg" xmlns:xlink="http://www.w3.org/1999/xlink" x="0px" y="0px"
	 width="120px" height="36px" viewBox="0 0 120 36" enable-background="new 0 0 120 36" xml:space="preserve">
<g>
	<g>
		<g>
			<path fill="#FFFFFF" d="M1.385,1.5h8.804c6.652,0,12.133,5.228,12.133,11.942s-5.511,11.943-12.133,11.943H1.385V1.5z
				 M7.594,20.127h1.394c3.706,0,6.875-2.027,6.875-6.685c0-4.275-2.82-6.685-6.811-6.685H7.594V20.127z"/>
			<path fill="#FFFFFF" d="M53.301,1.5h6.207l11.373,14.603h0.06V1.5h6.212v23.886h-6.212L59.573,10.75h-0.064v14.636h-6.207V1.5z"
				/>
			<path fill="#FFFFFF" d="M81.206,1.5h8.806c6.652,0,12.132,5.228,12.132,11.942s-5.512,11.943-12.132,11.943h-8.806V1.5z
				 M87.416,20.127h1.392c3.707,0,6.876-2.027,6.876-6.685c0-4.275-2.822-6.685-6.813-6.685h-1.454V20.127z"/>
			<path fill="#FFFFFF" d="M111.231,6.758v3.992h7.004v5.258h-7.004v4.119h7.384v5.259h-13.59V1.5h13.59v5.258H111.231z"/>
		</g>
	</g>
	<path fill="#FFFFFF" d="M37.784,0.597c-7.066,0-12.813,5.749-12.813,12.814c0,1.843,0.376,3.602,1.119,5.231
		c3.204,7.009,9.347,14.412,11.155,16.512c0.133,0.157,0.33,0.25,0.539,0.25c0.208,0,0.405-0.092,0.54-0.25
		c1.805-2.1,7.948-9.501,11.153-16.512c0.747-1.629,1.121-3.388,1.121-5.231C50.596,6.345,44.85,0.597,37.784,0.597z M44.481,16.23
		h-4.72v5.192h-3.54V16.23h-5.193v-3.776h5.193V7.971h3.54v4.483h4.72V16.23z"/>
</g>
</svg>
