<?xml version="1.0" encoding="utf-8"?>
<!-- Generator: Adobe Illustrator 16.0.0, SVG Export Plug-In . SVG Version: 6.00 Build 0)  -->
<!DOCTYPE svg PUBLIC "-//W3C//DTD SVG 1.1//EN" "http://www.w3.org/Graphics/SVG/1.1/DTD/svg11.dtd">
<svg version="1.1" id="Layer_1" xmlns="http://www.w3.org/2000/svg" xmlns:xlink="http://www.w3.org/1999/xlink" x="0px" y="0px"
	 width="425px" height="30px" viewBox="0 0 425 30" enable-background="new 0 0 425 30" xml:space="preserve">
<g>
	<g>
		<path fill="#6CC04A" d="M33.914,23.143l-1.723,4.338h-6.884l9.6-24.96h7.087l9.401,24.96h-6.918l-1.624-4.338H33.914z
			 M38.45,10.232h-0.067l-2.678,7.944h5.394L38.45,10.232z"/>
		<path fill="#6CC04A" d="M53.416,27.48V2.52h9.272c4.436,0,7.414,1.722,7.414,6.488c0,2.25-0.727,4.07-2.748,5.097v0.065
			c3.577,0.465,5.1,2.881,5.1,6.356c0,5.23-4.469,6.953-9.04,6.953H53.416z M59.905,12.32h0.73c1.719,0,3.508-0.299,3.508-2.418
			c0-2.285-2.019-2.417-3.772-2.417h-0.466V12.32z M59.905,22.514h0.828c1.922,0,5.165,0.099,5.165-2.647
			c0-3.014-3.209-2.715-5.328-2.715h-0.665V22.514z"/>
		<path fill="#6CC04A" d="M102.184,14.536c0,8.077-5.795,13.772-13.807,13.772c-8.01,0-13.803-5.695-13.803-13.772
			c0-7.548,6.619-12.843,13.803-12.843C95.563,1.692,102.184,6.988,102.184,14.536z M81.326,14.57c0,4.303,3.178,7.447,7.051,7.447
			c3.874,0,7.053-3.144,7.053-7.447c0-3.443-3.179-6.588-7.053-6.588C84.503,7.982,81.326,11.126,81.326,14.57z"/>
		<path fill="#6CC04A" d="M125.958,27.48h-8.082l-6.122-9.6h-0.067v9.6h-6.488V2.52h9.7c4.934,0,8.673,2.349,8.673,7.677
			c0,3.446-1.919,6.425-5.462,7.051L125.958,27.48z M111.687,13.709h0.629c2.119,0,4.501-0.396,4.501-3.112
			c0-2.714-2.383-3.112-4.501-3.112h-0.629V13.709z"/>
		<path fill="#6CC04A" d="M137.642,27.48h-6.488V8.015h-5.363V2.52h17.213v5.495h-5.362V27.48z"/>
		<path fill="#6CC04A" d="M171.71,14.536c0,8.077-5.793,13.772-13.803,13.772c-8.015,0-13.804-5.695-13.804-13.772
			c0-7.548,6.618-12.843,13.804-12.843C165.091,1.692,171.71,6.988,171.71,14.536z M150.854,14.57c0,4.303,3.178,7.447,7.053,7.447
			c3.872,0,7.049-3.144,7.049-7.447c0-3.443-3.177-6.588-7.049-6.588C154.032,7.982,150.854,11.126,150.854,14.57z"/>
	</g>
	<path d="M246.307,27.48V2.52h9.271c4.435,0,7.416,1.722,7.416,6.488c0,2.25-0.731,4.07-2.75,5.097v0.065
		c3.577,0.465,5.1,2.881,5.1,6.356c0,5.23-4.472,6.953-9.041,6.953H246.307z M252.796,12.32h0.727c1.722,0,3.512-0.299,3.512-2.418
		c0-2.285-2.021-2.417-3.776-2.417h-0.462V12.32z M252.796,22.514h0.827c1.919,0,5.166,0.099,5.166-2.647
		c0-3.014-3.212-2.715-5.331-2.715h-0.663V22.514z"/>
	<path d="M275.077,23.143l-1.722,4.338h-6.883l9.601-24.96h7.084l9.399,24.96h-6.918l-1.621-4.338H275.077z M279.613,10.232h-0.067
		l-2.683,7.944h5.397L279.613,10.232z"/>
	<path d="M315.338,27.48h-8.08l-6.123-9.6h-0.068v9.6h-6.489V2.52h9.701c4.934,0,8.672,2.349,8.672,7.677
		c0,3.446-1.917,6.425-5.459,7.051L315.338,27.48z M301.067,13.709h0.631c2.119,0,4.5-0.396,4.5-3.112
		c0-2.714-2.381-3.112-4.5-3.112h-0.631V13.709z"/>
	<path d="M337.85,27.48h-8.079l-6.123-9.6h-0.067v9.6h-6.49V2.52h9.702c4.931,0,8.672,2.349,8.672,7.677
		c0,3.446-1.919,6.425-5.462,7.051L337.85,27.48z M323.581,13.709h0.63c2.117,0,4.504-0.396,4.504-3.112
		c0-2.714-2.387-3.112-4.504-3.112h-0.63V13.709z"/>
	<path d="M346.095,8.015v4.172h7.313v5.496h-7.313v4.302h7.71v5.495h-14.198V2.52h14.198v5.495H346.095z"/>
	<path d="M378.571,27.48h-8.077l-6.126-9.6h-0.067v9.6h-6.488V2.52h9.702c4.932,0,8.672,2.349,8.672,7.677
		c0,3.446-1.917,6.425-5.462,7.051L378.571,27.48z M364.302,13.709h0.632c2.117,0,4.502-0.396,4.502-3.112
		c0-2.714-2.385-3.112-4.502-3.112h-0.632V13.709z"/>
	<path d="M386.684,23.143l-1.718,4.338h-6.886l9.599-24.96h7.086l9.402,24.96h-6.92l-1.621-4.338H386.684z M391.221,10.232h-0.067
		l-2.68,7.944h5.396L391.221,10.232z"/>
	<path d="M419.893,8.941c-1.19-0.991-2.716-1.654-4.303-1.654c-1.192,0-2.783,0.695-2.783,2.084c0,1.456,1.755,2.019,2.878,2.386
		l1.658,0.495c3.474,1.026,6.156,2.78,6.156,6.819c0,2.484-0.593,5.034-2.581,6.722c-1.953,1.655-4.569,2.35-7.086,2.35
		c-3.145,0-6.224-1.058-8.773-2.849l2.784-5.229c1.619,1.422,3.543,2.582,5.759,2.582c1.522,0,3.146-0.758,3.146-2.518
		c0-1.818-2.548-2.445-3.941-2.845c-4.073-1.156-6.752-2.217-6.752-7.051c0-5.064,3.607-8.376,8.605-8.376
		c2.517,0,5.594,0.795,7.815,2.055L419.893,8.941z"/>
	<g>
		<path d="M193.578,8.964c-1.188-0.991-2.707-1.649-4.29-1.649c-1.185,0-2.774,0.692-2.774,2.079c0,1.453,1.751,2.012,2.874,2.376
			l1.649,0.496c3.464,1.023,6.137,2.772,6.137,6.796c0,2.475-0.596,5.019-2.573,6.695c-1.947,1.654-4.554,2.348-7.064,2.348
			c-3.134,0-6.203-1.059-8.744-2.838l2.774-5.212c1.613,1.417,3.527,2.57,5.74,2.57c1.516,0,3.135-0.758,3.135-2.508
			c0-1.813-2.54-2.439-3.929-2.834c-4.058-1.156-6.731-2.216-6.731-7.031c0-5.048,3.598-8.348,8.583-8.348
			c2.506,0,5.574,0.795,7.787,2.047L193.578,8.964z"/>
		<path d="M206.715,27.446h-6.469V2.561h6.469V27.446z"/>
		<path d="M210.938,2.561h6.467l11.847,15.215h0.068V2.561h6.465v24.885h-6.465l-11.848-15.248h-0.067v15.248h-6.467V2.561z"/>
	</g>
	<path d="M13.013,21.032l-0.197,0.515l-2.284,5.937h4.036l2.272-5.923l0.199-0.528h7.475V17.16h-5.998l1.613-4.23h6.946V9.056
		h-5.468l2.479-6.45h-3.986l-2.482,6.45L13.013,21.032z M14.611,9.056l0.196-0.506l2.274-5.943h-4.025l-2.274,5.931l-0.198,0.519
		H2.923v3.874h6.186l-1.61,4.23H1.5v3.872H6.02l-2.482,6.451h3.988l2.481-6.451L14.611,9.056z M11.497,17.16l1.625-4.23"/>
</g>
</svg>
