<?xml version="1.0" encoding="utf-8"?>
<!-- Generator: Adobe Illustrator 16.0.0, SVG Export Plug-In . SVG Version: 6.00 Build 0)  -->
<!DOCTYPE svg PUBLIC "-//W3C//DTD SVG 1.1//EN" "http://www.w3.org/Graphics/SVG/1.1/DTD/svg11.dtd">
<svg version="1.1" xmlns="http://www.w3.org/2000/svg" xmlns:xlink="http://www.w3.org/1999/xlink" x="0px" y="0px" width="1200px"
	 height="600px" viewBox="0 0 1200 600" enable-background="new 0 0 1200 600" xml:space="preserve">
<g id="background">
</g>
<g id="hands">
	<g>
		<g id="banner_1_">
			
				<radialGradient id="SVGID_1_" cx="554.4629" cy="1730.4189" r="148.2417" gradientTransform="matrix(3.0154 0 0 0.1181 -1071.9252 396.2206)" gradientUnits="userSpaceOnUse">
				<stop  offset="0" style="stop-color:#545454"/>
				<stop  offset="1" style="stop-color:#FFFFFF"/>
			</radialGradient>
			<path opacity="0.5" fill="url(#SVGID_1_)" d="M1046.736,600c-7.867-9.401-204.852-16.912-446.736-16.912
				c-241.882,0-438.874,7.511-446.736,16.912H1046.736z"/>
		</g>
		<g>
			<path fill-rule="evenodd" clip-rule="evenodd" fill="#D6ECC7" d="M579.407,343.695c0.609,8.136,5.705,0.463,7.014-2.237
				c1.775-0.868-0.689-15.035,0.124-27.366c-0.998-9.784-1.479-19.501-1.378-29.279c-0.406-5.2-2.294-12.341-1.882-20.508
				c1.764-10.09,14.117-8.137,16.357-1.858c2.801,7.058,3.521,14.252,4.187,22.599c0.546,7.212,1.2,10.289,2.253,17.495
				c1.164,12.845,0.991,26.203,0.361,39.811c3.07,1.157,5.555-4.626,6.78-8.958c1.631-5.864,3.075-11.967,4.44-18.355
				c0.982-7.311,1.469-15.219,2.572-22.305c0.677-5.951,0.86-12.663,2.59-17.839c2.508-10.382,16.557-9.13,16.926,4.034
				l-1.443,18.823c-1.012,9.024-0.372,16.911-1.891,23.563c-0.461,7.956-1.518,15.919-2.993,23.876
				c-0.677,7.358,0.569,19.666,0.851,21.245c1.508,5.518,2.182,13.414,6.307,15.518c3.106-1.496,4.67-4.206,7.364-10.267
				c5.499-14.072,16.517-23.324,32.937-25.002c7.139-0.535,8.012,6.938,5.223,9.096c-2.828,2.429-7.285,5.133-9.332,7.653
				c-8.313,13.827-15.205,33.924-18.764,44.953c-3.913,12.189-18.389,26.743-21.853,33.95c-6.623,10.553-6.53,22.709-6.53,22.709
				s-0.404,125.084,0,134.247h-60.89V467.405l-7.237-17.904c-9.432-18.515-10.279-34.802-12.092-51.481
				c-1.889-6.33-4.646-18.722-5.671-19.559c-1.739-4.473-11.76-13.38-13.304-17.764c-5.902-10.493-15.08-20.984-17.319-31.095
				c-2.883-7.043,3.797-14.277,10.777-7.551c3.604,4.157,13.851,19.976,21.789,28.958c3.028,3.241,6.348,7.45,8.804,11.172
				c4.625,3.823,10.89-3.927,9.254-8.791c-2.043-8.06-5.716-17.845-6.117-24.168c-1.923-9.451-3.631-18.904-4.775-28.363
				c-1.491-5.185-3.65-11.337-3.884-16.71c-1.154-13.563,12.568-14.565,15.877-3.929c1.437,6.339,3.265,12.854,4.568,19.454
				c0.509,8.777,5.353,18.895,7.314,28.348C578.285,332.96,578.896,338.471,579.407,343.695z"/>
			<path fill-rule="evenodd" clip-rule="evenodd" fill="#6CC04A" d="M339.382,231.526c0.61,8.127,5.703,0.455,7.013-2.244
				c1.779-0.867-0.689-15.021,0.129-27.353c-1.004-9.781-1.482-19.514-1.378-29.292c-0.405-5.202-2.295-12.341-1.884-20.499
				c1.764-10.098,14.12-8.145,16.359-1.849c2.794,7.053,3.513,14.25,4.191,22.589c0.542,7.218,1.187,10.285,2.247,17.505
				c1.163,12.822,0.993,26.2,0.368,39.795c3.062,1.161,5.542-4.611,6.774-8.946c1.631-5.877,3.069-11.977,4.442-18.354
				c0.987-7.324,1.464-15.237,2.571-22.324c0.677-5.944,0.86-12.647,2.59-17.819c2.51-10.394,16.557-9.148,16.92,4.017l-1.44,18.822
				c-1.012,9.024-0.374,16.911-1.897,23.565c-0.451,7.953-1.506,15.919-2.986,23.872c-0.678,7.376,0.574,19.671,0.85,21.26
				c1.511,5.504,2.176,13.399,6.304,15.521c3.115-1.499,4.669-4.219,7.369-10.27c5.501-14.073,16.516-23.339,32.933-25.017
				c7.141-0.521,8.015,6.938,5.223,9.112c-2.82,2.412-7.276,5.118-9.328,7.637c-8.306,13.825-15.21,33.923-18.756,44.971
				c-3.917,12.185-18.389,26.731-21.852,33.942c-6.634,10.561-6.538,22.71-6.538,22.71s-0.404,237.248,0,246.411H328.71V355.234
				l-7.235-17.9c-9.427-18.506-10.278-34.811-12.087-51.485c-1.893-6.324-4.65-18.716-5.671-19.544
				c-1.738-4.491-11.761-13.401-13.31-17.781c-5.899-10.494-15.078-20.984-17.315-31.08c-2.883-7.057,3.792-14.29,10.772-7.552
				c3.607,4.158,13.85,19.975,21.789,28.945c3.032,3.252,6.356,7.461,8.809,11.188c4.622,3.808,10.885-3.945,9.25-8.794
				c-2.039-8.057-5.712-17.858-6.117-24.183c-1.92-9.449-3.634-18.905-4.776-28.346c-1.489-5.19-3.647-11.337-3.878-16.725
				c-1.157-13.551,12.563-14.553,15.875-3.924c1.437,6.329,3.264,12.86,4.566,19.446c0.514,8.779,5.358,18.91,7.312,28.361
				C338.262,220.785,338.867,226.303,339.382,231.526z"/>
			<path fill-rule="evenodd" clip-rule="evenodd" fill="#6CC04A" d="M499.395,152.867c0.617,8.127,5.703,0.452,7.017-2.244
				c1.776-0.867-0.687-15.024,0.13-27.361c-1.005-9.783-1.488-19.504-1.381-29.288c-0.406-5.199-2.3-12.337-1.887-20.504
				c1.762-10.09,14.122-8.139,16.366-1.848c2.79,7.053,3.515,14.25,4.185,22.594c0.544,7.211,1.191,10.28,2.249,17.497
				c1.166,12.831,0.998,26.195,0.367,39.806c3.061,1.157,5.543-4.617,6.781-8.95c1.626-5.873,3.068-11.974,4.439-18.36
				c0.982-7.312,1.46-15.223,2.572-22.318c0.673-5.938,0.861-12.654,2.593-17.825c2.503-10.385,16.558-9.139,16.916,4.033
				l-1.442,18.818c-1.012,9.023-0.373,16.914-1.896,23.565c-0.45,7.954-1.506,15.91-2.983,23.872
				c-0.681,7.369,0.568,19.67,0.849,21.255c1.509,5.511,2.174,13.406,6.305,15.512c3.115-1.491,4.667-4.202,7.364-10.261
				c5.503-14.073,16.515-23.332,32.938-25.01c7.131-0.534,8.007,6.938,5.223,9.096c-2.816,2.422-7.28,5.134-9.327,7.645
				c-8.311,13.835-15.211,33.928-18.759,44.97c-3.919,12.189-18.391,26.737-21.853,33.949c-6.636,10.555-6.537,22.707-6.537,22.707
				s-0.403,315.912,0,325.077h-60.89V276.572l-7.243-17.902c-9.423-18.509-10.272-34.806-12.085-51.483
				c-1.894-6.322-4.646-18.725-5.671-19.56c-1.736-4.476-11.76-13.386-13.31-17.767c-5.897-10.49-15.073-20.98-17.318-31.093
				c-2.875-7.041,3.796-14.277,10.776-7.543c3.603,4.16,13.856,19.978,21.789,28.954c3.032,3.246,6.356,7.448,8.807,11.183
				c4.628,3.805,10.888-3.946,9.253-8.794c-2.037-8.069-5.717-17.858-6.117-24.179c-1.92-9.457-3.635-18.9-4.777-28.353
				c-1.489-5.189-3.649-11.337-3.878-16.714c-1.155-13.562,12.562-14.569,15.876-3.932c1.433,6.33,3.263,12.855,4.563,19.448
				c0.516,8.776,5.36,18.907,7.315,28.361C498.281,142.122,498.882,147.644,499.395,152.867z"/>
			<path fill-rule="evenodd" clip-rule="evenodd" fill="#B9E0A4" d="M659.41,202.389c0.619,8.135,5.709,0.468,7.012-2.234
				c1.775-0.866-0.686-15.027,0.133-27.368c-1.008-9.785-1.479-19.501-1.377-29.278c-0.412-5.197-2.301-12.342-1.881-20.506
				c1.764-10.092,14.115-8.141,16.355-1.858c2.793,7.061,3.512,14.264,4.188,22.597c0.543,7.212,1.189,10.29,2.252,17.494
				c1.162,12.846,0.998,26.203,0.361,39.816c3.068,1.151,5.541-4.628,6.787-8.953c1.623-5.868,3.059-11.971,4.438-18.365
				c0.979-7.311,1.463-15.223,2.572-22.308c0.672-5.949,0.863-12.662,2.594-17.834c2.5-10.383,16.557-9.133,16.908,4.031
				l-1.434,18.824c-1.021,9.024-0.385,16.909-1.906,23.564c-0.441,7.959-1.502,15.919-2.98,23.873
				c-0.686,7.363,0.572,19.671,0.852,21.247c1.506,5.518,2.178,13.417,6.297,15.518c3.123-1.499,4.68-4.209,7.377-10.267
				c5.5-14.066,16.516-23.325,32.928-25.002c7.146-0.535,8.02,6.938,5.223,9.095c-2.822,2.43-7.277,5.134-9.324,7.654
				c-8.316,13.832-15.215,33.926-18.764,44.953c-3.914,12.188-18.391,26.744-21.855,33.949c-6.621,10.557-6.527,22.707-6.527,22.707
				s-0.412,266.392,0,275.555H648.75V326.103l-7.24-17.9c-9.426-18.521-10.275-34.808-12.092-51.485
				c-1.885-6.33-4.652-18.726-5.677-19.56c-1.737-4.475-11.749-13.38-13.302-17.761c-5.906-10.491-15.081-20.98-17.322-31.099
				c-2.875-7.042,3.799-14.271,10.776-7.542c3.61,4.156,13.851,19.968,21.786,28.951c3.04,3.238,6.357,7.446,8.813,11.183
				c4.626,3.814,10.884-3.939,9.243-8.802c-2.027-8.057-5.703-17.844-6.117-24.17c-1.91-9.449-3.625-18.904-4.768-28.358
				c-1.486-5.184-3.65-11.337-3.885-16.712c-1.146-13.553,12.572-14.565,15.877-3.923c1.438,6.333,3.262,12.852,4.572,19.452
				c0.506,8.774,5.357,18.903,7.311,28.346C658.297,191.656,658.906,197.166,659.41,202.389z"/>
			<path fill-rule="evenodd" clip-rule="evenodd" fill="#B9E0A4" d="M259.371,384.483c0.617,8.126,5.704,0.467,7.015-2.246
				c1.776-0.867-0.683-15.027,0.134-27.357c-1.008-9.773-1.489-19.502-1.386-29.28c-0.401-5.194-2.295-12.347-1.882-20.508
				c1.76-10.097,14.119-8.134,16.365-1.848c2.792,7.054,3.512,14.243,4.184,22.597c0.54,7.205,1.195,10.285,2.249,17.494
				c1.166,12.84,0.999,26.206,0.366,39.797c3.061,1.171,5.548-4.618,6.785-8.949c1.624-5.869,3.067-11.976,4.439-18.356
				c0.981-7.303,1.461-15.221,2.572-22.306c0.667-5.944,0.859-12.665,2.592-17.839c2.502-10.389,16.554-9.131,16.913,4.041
				l-1.444,18.809c-1.005,9.033-0.371,16.917-1.891,23.563c-0.448,7.959-1.511,15.928-2.987,23.882
				c-0.681,7.359,0.566,19.661,0.85,21.247c1.506,5.509,2.177,13.405,6.299,15.526c3.121-1.507,4.669-4.217,7.37-10.275
				c5.505-14.065,16.514-23.333,32.94-25.012c7.132-0.52,8.005,6.939,5.222,9.114c-2.826,2.419-7.285,5.125-9.335,7.644
				c-8.306,13.82-15.207,33.928-18.758,44.953c-3.917,12.19-18.387,26.75-21.851,33.95c-6.635,10.553-6.539,22.708-6.539,22.708
				s-0.404,84.297,0,93.46h-60.882v-91.09l-7.244-17.916c-9.421-18.512-10.273-34.805-12.092-51.481
				c-1.889-6.325-4.642-18.711-5.67-19.544c-1.734-4.482-11.756-13.391-13.303-17.78c-5.904-10.492-15.082-20.986-17.32-31.08
				c-2.876-7.044,3.799-14.292,10.779-7.558c3.6,4.162,13.854,19.973,21.789,28.951c3.031,3.246,6.348,7.46,8.802,11.181
				c4.629,3.823,10.888-3.929,9.252-8.794c-2.036-8.051-5.716-17.845-6.116-24.178c-1.916-9.44-3.63-18.894-4.776-28.345
				c-1.486-5.188-3.646-11.338-3.883-16.713c-1.147-13.568,12.565-14.57,15.884-3.939c1.43,6.34,3.257,12.864,4.56,19.462
				c0.512,8.774,5.361,18.893,7.315,28.344C258.258,373.75,258.858,379.259,259.371,384.483z"/>
			<path fill-rule="evenodd" clip-rule="evenodd" fill="#6CC04A" d="M739.424,378.653c0.605,8.134,5.697,0.47,7.014-2.229
				c1.779-0.868-0.693-15.026,0.125-27.37c-0.998-9.784-1.484-19.506-1.385-29.277c-0.398-5.199-2.285-12.347-1.885-20.511
				c1.77-10.085,14.119-8.136,16.367-1.854c2.791,7.06,3.516,14.263,4.193,22.595c0.529,7.213,1.182,10.292,2.238,17.496
				c1.17,12.846,1.004,26.204,0.377,39.816c3.057,1.15,5.535-4.625,6.779-8.951c1.615-5.871,3.061-11.973,4.438-18.363
				c0.986-7.317,1.457-15.228,2.574-22.313c0.664-5.949,0.859-12.663,2.594-17.837c2.488-10.376,16.555-9.133,16.91,4.033
				l-1.443,18.823c-1.014,9.024-0.365,16.908-1.896,23.564c-0.441,7.959-1.51,15.919-2.98,23.873
				c-0.682,7.36,0.561,19.671,0.852,21.247c1.498,5.514,2.166,13.418,6.303,15.517c3.113-1.496,4.666-4.209,7.361-10.267
				c5.51-14.067,16.518-23.323,32.936-24.998c7.139-0.542,8.014,6.932,5.223,9.096c-2.813,2.425-7.271,5.127-9.332,7.648
				c-8.299,13.832-15.205,33.928-18.75,44.956c-3.928,12.186-18.389,26.742-21.85,33.948c-6.645,10.561-6.547,22.706-6.547,22.706
				s-0.396,90.128,0,99.289H728.76v-96.925l-7.246-17.897c-9.43-18.52-10.273-34.809-12.096-51.486
				c-1.887-6.33-4.643-18.727-5.662-19.561c-1.738-4.475-11.771-13.377-13.305-17.759c-5.902-10.492-15.088-20.981-17.32-31.099
				c-2.879-7.045,3.789-14.274,10.77-7.539c3.607,4.151,13.854,19.965,21.787,28.945c3.041,3.239,6.35,7.454,8.807,11.19
				c4.635,3.807,10.893-3.946,9.262-8.809c-2.041-8.06-5.723-17.847-6.119-24.169c-1.918-9.45-3.631-18.906-4.783-28.36
				c-1.48-5.183-3.648-11.335-3.873-16.713c-1.15-13.551,12.561-14.564,15.873-3.922c1.439,6.333,3.266,12.851,4.564,19.453
				c0.516,8.771,5.355,18.901,7.316,28.342C738.309,367.922,738.902,373.433,739.424,378.653z"/>
			<path fill-rule="evenodd" clip-rule="evenodd" fill="#8DCD6F" d="M419.389,310.195c0.61,8.119,5.702,0.452,7.012-2.244
				c1.777-0.867-0.682-15.031,0.129-27.358c-1.004-9.785-1.481-19.501-1.38-29.291c-0.405-5.203-2.291-12.344-1.88-20.498
				c1.76-10.095,14.116-8.135,16.357-1.854c2.799,7.059,3.515,14.247,4.19,22.596c0.541,7.215,1.193,10.276,2.245,17.496
				c1.171,12.828,0.998,26.2,0.37,39.803c3.061,1.164,5.546-4.617,6.78-8.953c1.626-5.869,3.07-11.971,4.444-18.354
				c0.98-7.311,1.458-15.221,2.569-22.324c0.668-5.93,0.86-12.647,2.591-17.818c2.501-10.395,16.555-9.132,16.913,4.033
				l-1.44,18.808c-1.008,9.039-0.375,16.925-1.894,23.565c-0.448,7.959-1.512,15.916-2.983,23.887
				c-0.685,7.355,0.562,19.653,0.85,21.246c1.503,5.5,2.175,13.405,6.297,15.517c3.116-1.496,4.673-4.208,7.368-10.267
				c5.507-14.07,16.517-23.337,32.94-25.01c7.135-0.529,8.008,6.93,5.223,9.104c-2.824,2.417-7.28,5.131-9.334,7.64
				c-8.31,13.834-15.21,33.927-18.76,44.967c-3.917,12.188-18.388,26.743-21.852,33.949c-6.629,10.553-6.536,22.707-6.536,22.707
				s-0.406,158.586,0,167.749h-60.882V433.907l-7.244-17.915c-9.428-18.503-10.278-34.807-12.092-51.485
				c-1.888-6.313-4.643-18.709-5.669-19.545c-1.738-4.475-11.76-13.391-13.304-17.772c-5.907-10.492-15.083-20.981-17.322-31.086
				c-2.881-7.042,3.801-14.286,10.781-7.554c3.6,4.165,13.852,19.98,21.786,28.948c3.03,3.252,6.35,7.465,8.806,11.188
				c4.626,3.809,10.89-3.93,9.249-8.791c-2.038-8.062-5.715-17.851-6.117-24.179c-1.917-9.457-3.626-18.897-4.776-28.349
				c-1.486-5.188-3.643-11.335-3.881-16.715c-1.147-13.568,12.566-14.565,15.884-3.941c1.433,6.336,3.257,12.869,4.56,19.453
				c0.513,8.776,5.356,18.905,7.319,28.363C418.271,299.462,418.881,304.974,419.389,310.195z"/>
			<path fill-rule="evenodd" clip-rule="evenodd" fill="#9CD481" d="M819.432,131.015c0.605,8.129,5.699,0.458,7.012-2.239
				c1.781-0.867-0.688-15.034,0.131-27.365c-1.004-9.781-1.484-19.506-1.389-29.283c-0.396-5.203-2.297-12.342-1.877-20.505
				c1.762-10.088,14.113-8.14,16.363-1.85c2.795,7.054,3.512,14.247,4.188,22.596c0.535,7.209,1.195,10.278,2.244,17.495
				c1.162,12.833,0.992,26.202,0.367,39.806c3.064,1.157,5.551-4.62,6.777-8.956c1.627-5.865,3.076-11.968,4.441-18.354
				c0.982-7.31,1.465-15.228,2.572-22.32c0.672-5.937,0.861-12.655,2.592-17.823c2.5-10.39,16.551-9.141,16.918,4.031l-1.441,18.817
				c-1.006,9.025-0.367,16.911-1.891,23.564c-0.457,7.958-1.518,15.917-2.994,23.872c-0.674,7.372,0.568,19.671,0.85,21.26
				c1.508,5.507,2.184,13.407,6.313,15.51c3.104-1.49,4.664-4.202,7.359-10.259c5.5-14.082,16.516-23.333,32.941-25.012
				c7.133-0.535,8.008,6.937,5.225,9.098c-2.822,2.417-7.291,5.125-9.34,7.644c-8.297,13.835-15.203,33.931-18.75,44.971
				c-3.926,12.185-18.396,26.735-21.85,33.949c-6.641,10.552-6.547,22.706-6.547,22.706s-0.396,337.761,0,346.923H808.76V254.726
				l-7.236-17.901c-9.434-18.511-10.283-34.807-12.096-51.487c-1.885-6.324-4.639-18.722-5.664-19.558
				c-1.738-4.479-11.77-13.385-13.311-17.765c-5.895-10.492-15.082-20.98-17.314-31.089c-2.887-7.042,3.797-14.281,10.779-7.553
				c3.598,4.162,13.85,19.982,21.785,28.958c3.027,3.246,6.344,7.443,8.807,11.178c4.619,3.808,10.881-3.941,9.248-8.79
				c-2.041-8.07-5.715-17.859-6.113-24.179c-1.924-9.458-3.639-18.902-4.781-28.355c-1.488-5.187-3.639-11.334-3.873-16.714
				c-1.158-13.564,12.559-14.568,15.877-3.933c1.424,6.334,3.264,12.859,4.559,19.452c0.518,8.773,5.354,18.9,7.313,28.354
				C818.307,120.272,818.92,125.795,819.432,131.015z"/>
			<path fill-rule="evenodd" clip-rule="evenodd" fill="#6CC04A" d="M899.434,311.653c0.619,8.127,5.711,0.448,7.012-2.243
				c1.779-0.868-0.688-15.032,0.131-27.359c-1.004-9.793-1.479-19.514-1.373-29.292c-0.412-5.2-2.307-12.337-1.885-20.496
				c1.762-10.097,14.119-8.15,16.355-1.864c2.801,7.065,3.51,14.261,4.188,22.598c0.547,7.22,1.199,10.283,2.256,17.493
				c1.158,12.839,0.994,26.203,0.355,39.814c3.07,1.155,5.559-4.619,6.787-8.955c1.631-5.868,3.061-11.972,4.438-18.353
				c0.979-7.318,1.467-15.234,2.574-22.323c0.674-5.941,0.861-12.646,2.594-17.821c2.506-10.387,16.557-9.144,16.908,4.026
				l-1.436,18.823c-1.006,9.019-0.377,16.906-1.895,23.564c-0.451,7.954-1.506,15.91-2.99,23.867
				c-0.682,7.373,0.576,19.674,0.854,21.26c1.512,5.51,2.184,13.406,6.303,15.511c3.121-1.489,4.672-4.202,7.371-10.26
				c5.498-14.083,16.514-23.331,32.936-25.011c7.135-0.532,8.008,6.938,5.223,9.096c-2.832,2.421-7.289,5.133-9.33,7.645
				c-8.314,13.838-15.219,33.931-18.764,44.971c-3.914,12.188-18.393,26.736-21.854,33.948c-6.627,10.556-6.535,22.709-6.535,22.709
				s-0.406,157.127,0,166.29h-60.885V435.357l-7.24-17.902c-9.424-18.51-10.273-34.806-12.088-51.481
				c-1.893-6.325-4.646-18.725-5.676-19.56c-1.74-4.481-11.754-13.387-13.307-17.768c-5.9-10.491-15.072-20.98-17.32-31.094
				c-2.875-7.041,3.807-14.278,10.789-7.542c3.596,4.152,13.836,19.977,21.785,28.953c3.023,3.245,6.35,7.442,8.801,11.179
				c4.625,3.81,10.885-3.94,9.244-8.793c-2.027-8.065-5.707-17.856-6.115-24.177c-1.916-9.457-3.627-18.903-4.771-28.36
				c-1.488-5.174-3.639-11.337-3.881-16.71c-1.148-13.555,12.566-14.558,15.877-3.928c1.432,6.332,3.258,12.86,4.568,19.447
				c0.508,8.774,5.363,18.907,7.309,28.363C898.322,300.906,898.93,306.429,899.434,311.653z"/>
		</g>
	</g>
</g>
</svg>
